<svg width="26" height="26" viewBox="0 0 26 26" fill="none" xmlns="http://www.w3.org/2000/svg">
<path d="M23.9196 1C24.6592 1 25.2171 1.77328 24.9187 3.21159L21.2986 23.5489C21.0456 24.9949 20.3125 25.3429 19.3005 24.6702L10.6656 17.0688C10.6321 17.0402 10.6048 17.0024 10.586 16.9587C10.5672 16.915 10.5573 16.8666 10.5573 16.8175C10.5573 16.7684 10.5672 16.7199 10.586 16.6762C10.6048 16.6325 10.6321 16.5948 10.6656 16.5662L20.6369 5.83301C21.091 5.35358 20.5396 5.12159 19.9427 5.55463L7.42829 14.9655C7.39034 14.995 7.34724 15.0138 7.30228 15.0205C7.25732 15.0272 7.21167 15.0216 7.16879 15.0041L1.8555 13.0013C0.674769 12.5915 0.674769 11.6249 2.12149 10.9367L23.3811 1.16239C23.5497 1.06598 23.7328 1.01076 23.9196 1Z" stroke="#90A1B9" stroke-width="2" stroke-linecap="round" stroke-linejoin="round"/>
</svg>
