<svg width="37" height="36" viewBox="0 0 37 36" fill="none" xmlns="http://www.w3.org/2000/svg">
<path d="M17.5447 2.15824C17.6177 2.01067 17.7305 1.88646 17.8704 1.79961C18.0103 1.71277 18.1717 1.66675 18.3363 1.66675C18.501 1.66675 18.6624 1.71277 18.8023 1.79961C18.9421 1.88646 19.055 2.01067 19.128 2.15824L22.978 9.95657C23.2316 10.4698 23.606 10.9139 24.069 11.2507C24.5321 11.5874 25.0699 11.8068 25.6363 11.8899L34.2463 13.1499C34.4095 13.1735 34.5628 13.2424 34.6888 13.3486C34.8149 13.4548 34.9087 13.5942 34.9597 13.7509C35.0107 13.9077 35.0168 14.0756 34.9773 14.2356C34.9378 14.3957 34.8544 14.5415 34.7363 14.6566L28.5097 20.7199C28.099 21.1201 27.7918 21.614 27.6144 22.1593C27.437 22.7045 27.3948 23.2847 27.4913 23.8499L28.9613 32.4166C28.9901 32.5796 28.9725 32.7475 28.9105 32.901C28.8485 33.0546 28.7446 33.1876 28.6106 33.2849C28.4766 33.3822 28.318 33.4399 28.1528 33.4514C27.9876 33.4629 27.8225 33.4277 27.6763 33.3499L19.9797 29.3032C19.4725 29.0369 18.9083 28.8978 18.3355 28.8978C17.7627 28.8978 17.1985 29.0369 16.6913 29.3032L8.99634 33.3499C8.85022 33.4273 8.68533 33.462 8.52042 33.4503C8.35551 33.4386 8.1972 33.3808 8.0635 33.2836C7.92979 33.1864 7.82606 33.0536 7.7641 32.9003C7.70214 32.747 7.68443 32.5794 7.713 32.4166L9.18134 23.8516C9.27833 23.2861 9.23631 22.7056 9.0589 22.16C8.88149 21.6144 8.57402 21.1202 8.163 20.7199L1.93634 14.6582C1.81733 14.5433 1.73299 14.3972 1.69294 14.2367C1.65289 14.0762 1.65873 13.9076 1.7098 13.7502C1.76087 13.5928 1.85512 13.453 1.9818 13.3465C2.10848 13.2401 2.26251 13.1714 2.42634 13.1482L11.0347 11.8899C11.6018 11.8074 12.1403 11.5883 12.604 11.2515C13.0676 10.9148 13.4425 10.4704 13.6963 9.95657L17.5447 2.15824Z" stroke="#F8F9FB" stroke-width="3.33333" stroke-linecap="round" stroke-linejoin="round"/>
</svg>
