<svg width="40" height="40" viewBox="0 0 40 40" fill="none" xmlns="http://www.w3.org/2000/svg">
<path d="M33.3334 21.6666C33.3334 29.9999 27.5 34.1666 20.5667 36.5833C20.2036 36.7063 19.8092 36.7004 19.45 36.5666C12.5 34.1666 6.66669 29.9999 6.66669 21.6666V9.99994C6.66669 9.55791 6.84228 9.13399 7.15484 8.82142C7.4674 8.50886 7.89133 8.33327 8.33335 8.33327C11.6667 8.33327 15.8334 6.33327 18.7334 3.79994C19.0864 3.49827 19.5356 3.33252 20 3.33252C20.4644 3.33252 20.9136 3.49827 21.2667 3.79994C24.1834 6.34994 28.3334 8.33327 31.6667 8.33327C32.1087 8.33327 32.5326 8.50886 32.8452 8.82142C33.1578 9.13399 33.3334 9.55791 33.3334 9.99994V21.6666Z" stroke="#F8F9FB" stroke-width="3.33333" stroke-linecap="round" stroke-linejoin="round"/>
</svg>
