<svg width="28" height="28" viewBox="0 0 28 28" fill="none" xmlns="http://www.w3.org/2000/svg">
<path d="M15.75 8.16667C16.0722 8.16667 16.3334 7.9055 16.3334 7.58333C16.3334 7.26117 16.0722 7 15.75 7C15.4279 7 15.1667 7.26117 15.1667 7.58333C15.1667 7.9055 15.4279 8.16667 15.75 8.16667Z" fill="white" stroke="white" stroke-width="2.33333" stroke-linecap="round" stroke-linejoin="round"/>
<path d="M20.4166 12.8333C20.7388 12.8333 21 12.5721 21 12.25C21 11.9278 20.7388 11.6666 20.4166 11.6666C20.0945 11.6666 19.8333 11.9278 19.8333 12.25C19.8333 12.5721 20.0945 12.8333 20.4166 12.8333Z" fill="white" stroke="white" stroke-width="2.33333" stroke-linecap="round" stroke-linejoin="round"/>
<path d="M9.91665 9.33329C10.2388 9.33329 10.5 9.07213 10.5 8.74996C10.5 8.42779 10.2388 8.16663 9.91665 8.16663C9.59448 8.16663 9.33331 8.42779 9.33331 8.74996C9.33331 9.07213 9.59448 9.33329 9.91665 9.33329Z" fill="white" stroke="white" stroke-width="2.33333" stroke-linecap="round" stroke-linejoin="round"/>
<path d="M7.58333 15.1667C7.9055 15.1667 8.16667 14.9055 8.16667 14.5833C8.16667 14.2612 7.9055 14 7.58333 14C7.26117 14 7 14.2612 7 14.5833C7 14.9055 7.26117 15.1667 7.58333 15.1667Z" fill="white" stroke="white" stroke-width="2.33333" stroke-linecap="round" stroke-linejoin="round"/>
<path d="M14 2.33337C7.58331 2.33337 2.33331 7.58337 2.33331 14C2.33331 20.4167 7.58331 25.6667 14 25.6667C15.0803 25.6667 15.9226 24.7964 15.9226 23.6974C15.9226 23.1875 15.7126 22.7232 15.4128 22.3849C15.0745 22.0477 14.9018 21.6242 14.9018 21.0724C14.8974 20.8156 14.9447 20.5606 15.0409 20.3225C15.1372 20.0844 15.2803 19.8681 15.4619 19.6865C15.6435 19.5049 15.8598 19.3617 16.0979 19.2655C16.336 19.1693 16.591 19.1219 16.8478 19.1264H19.1765C22.736 19.1264 25.6573 16.2062 25.6573 12.6467C25.6258 7.01404 20.3711 2.33337 14 2.33337Z" stroke="white" stroke-width="2.33333" stroke-linecap="round" stroke-linejoin="round"/>
</svg>
