<svg width="18" height="20" viewBox="0 0 18 20" fill="none" xmlns="http://www.w3.org/2000/svg">
<path d="M14.5167 8.54739C14.5167 12.1715 10.4963 15.9458 9.14623 17.1115C9.02046 17.2061 8.86736 17.2572 8.71 17.2572C8.55264 17.2572 8.39954 17.2061 8.27377 17.1115C6.92372 15.9458 2.90333 12.1715 2.90333 8.54739C2.90333 7.00737 3.51511 5.53042 4.60407 4.44146C5.69303 3.35249 7.16998 2.74072 8.71 2.74072C10.25 2.74072 11.727 3.35249 12.8159 4.44146C13.9049 5.53042 14.5167 7.00737 14.5167 8.54739Z" stroke="#90A1B9" stroke-width="1.45167" stroke-linecap="round" stroke-linejoin="round"/>
<path d="M8.71024 10.7251C9.91297 10.7251 10.888 9.7501 10.888 8.54737C10.888 7.34464 9.91297 6.36963 8.71024 6.36963C7.50751 6.36963 6.5325 7.34464 6.5325 8.54737C6.5325 9.7501 7.50751 10.7251 8.71024 10.7251Z" stroke="#90A1B9" stroke-width="1.45167" stroke-linecap="round" stroke-linejoin="round"/>
</svg>
