<svg width="25" height="54" viewBox="0 0 25 54" fill="none" xmlns="http://www.w3.org/2000/svg">
<path d="M8.05001 2.66653C6.63552 2.66497 5.27835 3.22537 4.27705 4.22446C3.27575 5.22355 2.71235 6.57949 2.71079 7.99397L2.69314 23.994C2.69158 25.4085 3.25199 26.7656 4.25108 27.7669C5.25017 28.7682 6.6061 29.3316 8.02059 29.3332C8.72783 29.334 9.4058 29.6157 9.90535 30.1163C10.4049 30.617 10.6851 31.2955 10.6843 32.0028L10.6814 34.6695C10.6798 36.0839 10.1164 37.4399 9.11511 38.439C8.11382 39.4381 6.75664 39.9985 5.34216 39.9969C4.63491 39.9961 3.95633 40.2763 3.45568 40.7759C2.95503 41.2754 2.67333 41.9534 2.67255 42.6606L2.66667 47.994C2.66589 48.7012 2.94609 49.3798 3.44563 49.8804C3.94518 50.3811 4.62315 50.6628 5.33039 50.6636C9.57385 50.6682 13.6454 48.987 16.6493 45.9898C19.6532 42.9925 21.3433 38.9247 21.348 34.6812L21.3774 8.01457C21.379 6.60008 20.8186 5.24291 19.8195 4.24161C18.8204 3.24031 17.4645 2.67691 16.05 2.67535L8.05001 2.66653Z" stroke="#314158" stroke-width="5.33334" stroke-linecap="round" stroke-linejoin="round"/>
</svg>
