<svg width="19" height="18" viewBox="0 0 19 18" fill="none" xmlns="http://www.w3.org/2000/svg">
<path d="M8.77231 1.07924C8.80883 1.00546 8.86525 0.943351 8.93519 0.899928C9.00513 0.856506 9.08582 0.833496 9.16815 0.833496C9.25047 0.833496 9.33116 0.856506 9.4011 0.899928C9.47105 0.943351 9.52746 1.00546 9.56398 1.07924L11.489 4.97841C11.6158 5.23505 11.803 5.45708 12.0345 5.62545C12.266 5.79382 12.5349 5.9035 12.8181 5.94507L17.1231 6.57507C17.2047 6.58689 17.2814 6.6213 17.3444 6.67441C17.4074 6.72751 17.4543 6.7972 17.4798 6.87558C17.5053 6.95396 17.5084 7.03791 17.4886 7.11794C17.4689 7.19796 17.4272 7.27087 17.3681 7.32841L14.2548 10.3601C14.0495 10.5602 13.8959 10.8071 13.8072 11.0798C13.7185 11.3524 13.6974 11.6425 13.7456 11.9251L14.4806 16.2084C14.495 16.2899 14.4862 16.3739 14.4552 16.4506C14.4242 16.5274 14.3723 16.5939 14.3053 16.6426C14.2383 16.6912 14.159 16.7201 14.0764 16.7258C13.9938 16.7316 13.9112 16.714 13.8381 16.6751L9.98981 14.6517C9.73624 14.5186 9.45413 14.449 9.16773 14.449C8.88133 14.449 8.59922 14.5186 8.34565 14.6517L4.49815 16.6751C4.42509 16.7137 4.34264 16.7311 4.26019 16.7253C4.17773 16.7194 4.09858 16.6905 4.03173 16.6419C3.96487 16.5933 3.91301 16.5269 3.88203 16.4503C3.85105 16.3736 3.84219 16.2898 3.85648 16.2084L4.59065 11.9259C4.63914 11.6432 4.61813 11.3529 4.52943 11.0801C4.44072 10.8073 4.28699 10.5602 4.08148 10.3601L0.968146 7.32924C0.908641 7.27177 0.866474 7.19874 0.846448 7.11847C0.826422 7.0382 0.829344 6.95392 0.854878 6.87523C0.880413 6.79654 0.927535 6.72661 0.990877 6.67339C1.05422 6.62018 1.13123 6.58582 1.21315 6.57424L5.51731 5.94507C5.80086 5.90382 6.07014 5.79429 6.30197 5.6259C6.5338 5.4575 6.72123 5.2353 6.84815 4.97841L8.77231 1.07924Z" fill="#FCC800" stroke="#FCC800" stroke-width="1.66667" stroke-linecap="round" stroke-linejoin="round"/>
</svg>
